<?xml version="1.0" encoding="UTF-8"?>
<svg xmlns="http://www.w3.org/2000/svg" xmlns:xlink="http://www.w3.org/1999/xlink" width="352.88pt" height="78.57pt" viewBox="0 0 352.88 78.57" version="1.1">
<defs>
<clipPath id="clip1">
  <path d="M 0 0 L 113 0 L 113 78.570313 L 0 78.570313 Z M 0 0 "/>
</clipPath>
<clipPath id="clip2">
  <path d="M 323 22 L 352.878906 22 L 352.878906 74 L 323 74 Z M 323 22 "/>
</clipPath>
</defs>
<g id="surface1">
<g clip-path="url(#clip1)" clip-rule="nonzero">
<path style=" stroke:none;fill-rule:nonzero;fill:rgb(93.299866%,20.399475%,17.999268%);fill-opacity:1;" d="M 45.1875 22.546875 C 45.1875 33.796875 45.1875 44.769531 45.1875 56.019531 C 54.945313 50.410156 64.519531 44.90625 74.308594 39.277344 C 64.464844 33.621094 54.914063 28.132813 45.1875 22.546875 Z M 74.78125 -0.00390625 C 75.242188 0.660156 75.9375 0.304688 76.507813 0.328125 C 83.101563 0.625 89.695313 0.859375 96.257813 1.675781 C 105.113281 2.773438 109.605469 7.015625 110.933594 15.847656 C 112.660156 27.363281 112.722656 38.945313 112.109375 50.546875 C 111.867188 55.132813 111.488281 59.699219 110.640625 64.222656 C 109.261719 71.597656 104.660156 75.941406 97.203125 76.828125 C 84.921875 78.285156 72.578125 78.398438 60.238281 78.539063 C 47.605469 78.683594 34.980469 78.339844 22.371094 77.507813 C 19.507813 77.320313 16.652344 77.019531 13.828125 76.5 C 7.6875 75.363281 3.433594 71.273438 2.09375 65.171875 C 1.03125 60.332031 0.75 55.402344 0.359375 50.484375 C 0.320313 49.964844 0.648438 49.320313 0 48.929688 C 0 42.496094 0 36.066406 0 29.632813 C 0.648438 29.242188 0.316406 28.597656 0.359375 28.082031 C 0.707031 23.742188 1.007813 19.394531 1.738281 15.09375 C 3.105469 7.050781 7.675781 2.710938 15.773438 1.679688 C 22.210938 0.863281 28.683594 0.664063 35.152344 0.339844 C 35.722656 0.3125 36.417969 0.671875 36.871094 -0.00390625 C 49.507813 -0.00390625 62.144531 -0.00390625 74.78125 -0.00390625 "/>
</g>
<g clip-path="url(#clip2)" clip-rule="nonzero">
<path style=" stroke:none;fill-rule:nonzero;fill:rgb(13.699341%,14.898682%,16.099548%);fill-opacity:1;" d="M 334.304688 39.875 C 334.304688 41.238281 334.324219 42.84375 334.292969 44.449219 C 334.28125 45.109375 334.355469 45.515625 335.191406 45.5 C 337.3125 45.449219 339.433594 45.480469 341.550781 45.484375 C 342.046875 45.488281 342.46875 45.46875 342.453125 44.789063 C 342.375 40.898438 342.613281 36.984375 341.8125 33.148438 C 341.394531 31.15625 340.082031 30.28125 338.078125 30.324219 C 336.390625 30.359375 335.449219 31.191406 334.9375 33.152344 C 334.386719 35.277344 334.488281 37.46875 334.304688 39.875 Z M 352.878906 61.679688 C 352.210938 62.1875 352.554688 62.949219 352.433594 63.582031 C 351.429688 68.839844 348.292969 71.960938 343.09375 73.101563 C 339.78125 73.828125 336.46875 73.832031 333.210938 72.945313 C 328.203125 71.582031 325.835938 67.816406 324.671875 63.097656 C 324.25 61.382813 323.855469 59.613281 323.808594 57.855469 C 323.582031 49.667969 322.8125 41.441406 324.644531 33.335938 C 326.257813 26.210938 330.265625 23.015625 337.621094 22.6875 C 339.230469 22.613281 340.847656 22.601563 342.429688 22.890625 C 348.125 23.941406 351.066406 27.042969 352.183594 32.953125 C 352.386719 34.03125 352.234375 35.195313 352.878906 36.179688 C 352.878906 41.464844 352.878906 46.746094 352.878906 52.03125 C 346.96875 51.992188 341.0625 51.957031 335.15625 51.914063 C 334.621094 51.910156 334.285156 52.035156 334.296875 52.671875 C 334.367188 56.222656 334.171875 59.800781 334.960938 63.296875 C 335.398438 65.234375 336.628906 66.128906 338.515625 66.160156 C 340.417969 66.1875 341.625 65.339844 342.234375 63.472656 C 342.699219 62.046875 342.921875 60.570313 342.890625 59.070313 C 342.871094 58.171875 343.03125 57.71875 344.117188 57.8125 C 346.632813 58.027344 349.15625 58.15625 351.679688 58.210938 C 352.320313 58.226563 352.5 58.65625 352.878906 58.921875 C 352.878906 59.84375 352.878906 60.761719 352.878906 61.679688 "/>
</g>
<path style=" stroke:none;fill-rule:nonzero;fill:rgb(13.699341%,14.898682%,16.099548%);fill-opacity:1;" d="M 307.378906 48.90625 C 307.378906 46.15625 307.4375 43.402344 307.359375 40.652344 C 307.285156 38.082031 307.171875 35.484375 306.304688 33.027344 C 305.476563 30.683594 303.289063 29.917969 301.1875 31.257813 C 299.410156 32.390625 298.339844 33.996094 298.347656 36.226563 C 298.367188 44.710938 298.355469 53.195313 298.355469 61.679688 C 298.355469 63.769531 299.433594 65.097656 301.460938 65.523438 C 303.648438 65.980469 305.1875 65.222656 306.019531 63.191406 C 306.339844 62.40625 306.574219 61.570313 306.714844 60.734375 C 307.359375 56.816406 307.34375 52.859375 307.378906 48.90625 Z M 298.199219 28.917969 C 300.214844 25.765625 302.535156 23.765625 305.78125 22.972656 C 310.71875 21.765625 314.878906 23.917969 316.710938 28.617188 C 317.808594 31.433594 318.171875 34.40625 318.308594 37.367188 C 318.671875 45.222656 318.996094 53.085938 318.050781 60.929688 C 317.773438 63.207031 317.257813 65.433594 316.363281 67.5625 C 314.964844 70.894531 312.71875 73.316406 308.953125 73.683594 C 304.820313 74.085938 301.265625 72.816406 298.644531 69.421875 C 298.40625 69.113281 298.191406 68.78125 297.871094 68.324219 C 297.707031 68.757813 297.566406 69.042969 297.484375 69.347656 C 296.535156 73.003906 296.539063 73.003906 292.847656 73.003906 C 291.527344 73.003906 290.199219 72.917969 288.890625 73.027344 C 287.648438 73.132813 287.382813 72.675781 287.386719 71.496094 C 287.433594 60.988281 287.414063 50.484375 287.414063 39.976563 C 287.414063 28.265625 287.453125 16.554688 287.367188 4.84375 C 287.355469 3.246094 287.839844 2.949219 289.273438 3.023438 C 291.621094 3.140625 293.988281 3.183594 296.332031 3.011719 C 298.015625 2.890625 298.242188 3.546875 298.230469 5.015625 C 298.164063 12.8125 298.199219 20.613281 298.199219 28.917969 "/>
<path style=" stroke:none;fill-rule:nonzero;fill:rgb(13.699341%,14.898682%,16.099548%);fill-opacity:1;" d="M 214.09375 66.796875 C 212.113281 70.367188 209.722656 72.6875 206.132813 73.566406 C 199.761719 75.125 194.902344 71.835938 194.019531 65.355469 C 193.777344 63.585938 193.671875 61.820313 193.675781 60.039063 C 193.6875 48.5 193.703125 36.964844 193.652344 25.425781 C 193.644531 24.125 193.902344 23.652344 195.308594 23.71875 C 198 23.84375 200.703125 23.824219 203.398438 23.726563 C 204.640625 23.679688 204.902344 24.09375 204.894531 25.265625 C 204.851563 36.457031 204.863281 47.652344 204.878906 58.84375 C 204.882813 60.558594 204.84375 62.285156 205.363281 63.960938 C 205.773438 65.289063 206.628906 65.917969 208.027344 65.914063 C 210.691406 65.902344 212.648438 63.972656 212.648438 61.300781 C 212.648438 49.304688 212.671875 37.308594 212.613281 25.3125 C 212.609375 24.003906 212.949219 23.675781 214.226563 23.722656 C 217.035156 23.824219 219.851563 23.796875 222.660156 23.730469 C 223.664063 23.710938 223.902344 24.046875 223.902344 25.003906 C 223.875 40.617188 223.878906 56.230469 223.894531 71.839844 C 223.898438 72.667969 223.773438 73.097656 222.789063 73.070313 C 220.550781 73 218.308594 73.003906 216.074219 73.070313 C 215.226563 73.097656 215.019531 72.769531 214.925781 72.019531 C 214.726563 70.445313 214.433594 68.886719 214.09375 66.796875 "/>
<path style=" stroke:none;fill-rule:nonzero;fill:rgb(13.699341%,14.898682%,16.099548%);fill-opacity:1;" d="M 271.046875 66.808594 C 269.242188 70.070313 267.121094 72.335938 263.929688 73.34375 C 257.007813 75.519531 251.605469 71.890625 250.871094 64.675781 C 250.546875 61.464844 250.605469 58.253906 250.601563 55.042969 C 250.59375 45.164063 250.628906 35.289063 250.566406 25.414063 C 250.558594 24.046875 250.921875 23.667969 252.269531 23.722656 C 254.964844 23.832031 257.667969 23.816406 260.363281 23.726563 C 261.570313 23.683594 261.886719 24.03125 261.882813 25.242188 C 261.832031 36.554688 261.851563 47.867188 261.855469 59.179688 C 261.859375 60.667969 261.796875 62.160156 262.222656 63.621094 C 262.75 65.4375 263.613281 66.050781 265.5 65.875 C 267.921875 65.648438 269.585938 63.859375 269.585938 61.460938 C 269.589844 49.460938 269.605469 37.457031 269.5625 25.457031 C 269.554688 24.167969 269.78125 23.652344 271.21875 23.71875 C 273.96875 23.847656 276.730469 23.796875 279.484375 23.734375 C 280.496094 23.710938 280.855469 23.917969 280.851563 25.035156 C 280.8125 40.597656 280.816406 56.160156 280.847656 71.71875 C 280.851563 72.757813 280.625 73.121094 279.53125 73.074219 C 277.410156 72.984375 275.28125 73.019531 273.15625 73.0625 C 272.34375 73.078125 271.941406 72.933594 271.859375 71.976563 C 271.726563 70.402344 271.378906 68.847656 271.046875 66.808594 "/>
<path style=" stroke:none;fill-rule:nonzero;fill:rgb(13.699341%,14.898682%,16.099548%);fill-opacity:1;" d="M 168.550781 48.269531 C 168.550781 51.421875 168.480469 54.578125 168.574219 57.730469 C 168.640625 59.839844 168.746094 61.972656 169.566406 63.972656 C 170.113281 65.3125 171.105469 66.09375 172.574219 66.152344 C 174.078125 66.210938 175.066406 65.394531 175.65625 64.101563 C 176.15625 63.003906 176.386719 61.820313 176.476563 60.609375 C 177.046875 53.222656 176.734375 45.824219 176.683594 38.433594 C 176.667969 36.445313 176.492188 34.417969 175.6875 32.535156 C 175.113281 31.195313 174.09375 30.441406 172.625 30.449219 C 171.15625 30.457031 170.136719 31.210938 169.585938 32.566406 C 169.152344 33.632813 168.949219 34.75 168.808594 35.894531 C 168.296875 40.011719 168.625 44.144531 168.550781 48.269531 Z M 188.035156 49.605469 C 187.949219 53.011719 188.050781 57.542969 187.15625 62.027344 C 185.507813 70.277344 181.066406 73.9375 172.664063 73.855469 C 170.886719 73.839844 169.113281 73.675781 167.375 73.269531 C 161.945313 71.992188 159.332031 68.203125 158.191406 63.0625 C 157.703125 60.875 157.417969 58.652344 157.351563 56.421875 C 157.132813 49.144531 156.703125 41.859375 158.125 34.632813 C 159.984375 25.175781 166.1875 22.085938 175.121094 22.921875 C 182.082031 23.570313 186.015625 27.164063 187.449219 36.632813 C 188.039063 40.558594 188.050781 44.523438 188.035156 49.605469 "/>
<path style=" stroke:none;fill-rule:nonzero;fill:rgb(13.699341%,14.898682%,16.099548%);fill-opacity:1;" d="M 123.726563 5.515625 C 127.195313 5.515625 130.578125 5.546875 133.957031 5.496094 C 134.929688 5.484375 134.90625 6.171875 135.019531 6.730469 C 137.203125 17.378906 139.78125 27.941406 141.628906 38.660156 C 141.644531 38.765625 141.710938 38.867188 141.785156 39.050781 C 142.898438 33.707031 143.960938 28.429688 145.105469 23.171875 C 146.304688 17.640625 147.597656 12.128906 148.808594 6.597656 C 148.960938 5.894531 149.082031 5.484375 149.945313 5.496094 C 153.269531 5.542969 156.59375 5.515625 160.121094 5.515625 C 159.03125 9.394531 157.988281 13.128906 156.941406 16.863281 C 153.839844 27.925781 150.742188 38.988281 147.628906 50.046875 C 147.40625 50.835938 147.378906 51.625 147.378906 52.429688 C 147.382813 58.6875 147.339844 64.941406 147.410156 71.199219 C 147.425781 72.574219 147.148438 73.117188 145.644531 73.039063 C 143.128906 72.910156 140.59375 72.933594 138.074219 73.035156 C 136.757813 73.085938 136.300781 72.765625 136.339844 71.359375 C 136.449219 67.6875 136.199219 64.003906 136.414063 60.34375 C 136.773438 54.246094 135.664063 48.441406 133.96875 42.613281 C 130.472656 30.601563 127.25 18.507813 123.917969 6.445313 C 123.847656 6.179688 123.804688 5.902344 123.726563 5.515625 "/>
<path style=" stroke:none;fill-rule:nonzero;fill:rgb(13.699341%,14.898682%,16.099548%);fill-opacity:1;" d="M 242.980469 43.78125 C 242.980469 52.96875 242.949219 62.160156 243.015625 71.347656 C 243.027344 72.726563 242.640625 73.085938 241.304688 73.027344 C 238.839844 72.921875 236.363281 72.910156 233.898438 73.03125 C 232.464844 73.101563 232.085938 72.667969 232.089844 71.238281 C 232.140625 55.847656 232.121094 40.457031 232.121094 25.066406 C 232.121094 22.023438 232.082031 18.980469 232.140625 15.9375 C 232.164063 14.855469 231.917969 14.429688 230.726563 14.472656 C 227.972656 14.570313 225.210938 14.464844 222.457031 14.523438 C 221.464844 14.546875 221.023438 14.375 221.078125 13.234375 C 221.179688 11.113281 221.152344 8.984375 221.085938 6.863281 C 221.050781 5.851563 221.273438 5.484375 222.390625 5.492188 C 232.496094 5.535156 242.601563 5.535156 252.710938 5.492188 C 253.796875 5.484375 254.066406 5.789063 254.027344 6.832031 C 253.945313 9.011719 253.960938 11.199219 254.023438 13.378906 C 254.050781 14.296875 253.757813 14.539063 252.867188 14.523438 C 250.226563 14.46875 247.578125 14.585938 244.941406 14.472656 C 243.441406 14.40625 242.921875 14.738281 242.9375 16.390625 C 243.03125 25.519531 242.980469 34.652344 242.980469 43.78125 "/>
<path style=" stroke:none;fill-rule:nonzero;fill:rgb(99.598694%,99.198914%,99.198914%);fill-opacity:1;" d="M 45.1875 22.546875 C 54.914063 28.132813 64.464844 33.621094 74.308594 39.277344 C 64.519531 44.90625 54.945313 50.410156 45.1875 56.019531 C 45.1875 44.769531 45.1875 33.796875 45.1875 22.546875 "/>
</g>
</svg>
